<svg xmlns="http://www.w3.org/2000/svg" xmlns:xlink="http://www.w3.org/1999/xlink" width="1080" zoomAndPan="magnify" viewBox="0 0 810 809.999993" height="1080" preserveAspectRatio="xMidYMid meet" version="1.0"><defs><clipPath id="f10d3862c1"><path d="M 10.644531 241.835938 L 792.894531 241.835938 L 792.894531 565.835938 L 10.644531 565.835938 Z M 10.644531 241.835938 " clip-rule="nonzero"/></clipPath></defs><rect x="-81" width="972" fill="transparent" y="-80.999999" height="971.999992" fill-opacity="1"/><rect x="-81" width="972" fill="transparent" y="-80.999999" height="971.999992" fill-opacity="1"/><rect x="-81" width="972" fill="transparent" y="-80.999999" height="971.999992" fill-opacity="1"/><g clip-path="url(#f10d3862c1)"><path fill="#74279e" d="M 769.070312 292.886719 C 777.214844 286.824219 784.835938 280.089844 792.929688 274 L 792.929688 277.828125 C 791.417969 279.027344 789.914062 280.238281 788.40625 281.441406 C 763.8125 301.113281 737.785156 316.871094 708.824219 328.914062 C 694.113281 335.035156 678.832031 340.453125 663.964844 346.136719 C 651.164062 351.03125 638.46875 356.667969 625.027344 359.152344 C 615.371094 360.941406 603.617188 360.046875 596.3125 352.527344 C 586.421875 342.34375 597.316406 331.589844 592.839844 322.480469 C 588.386719 313.417969 566.847656 316.566406 557.9375 317.976562 C 547.480469 319.632812 536.847656 322.441406 527.925781 328.6875 C 511.730469 340.027344 494.746094 348.957031 475.164062 344.632812 C 465.113281 342.410156 456.527344 332.859375 447.953125 327.152344 C 439.078125 321.25 428.8125 317.308594 418.609375 315.140625 C 408.113281 312.914062 396.902344 312.433594 386.050781 314.105469 C 366.851562 317.070312 348.210938 323.882812 329.550781 329.570312 C 308.085938 336.117188 286.316406 342.804688 264.5 347.433594 C 245.628906 351.433594 225.917969 353.832031 207.246094 350.414062 C 191.253906 347.492188 178.070312 339.304688 164.839844 329.90625 C 154.09375 322.277344 142.03125 318.300781 129.023438 317.351562 C 115.992188 316.402344 102.511719 317.824219 89.285156 319.621094 C 63.128906 323.171875 36.894531 327.644531 10.644531 331.332031 L 10.644531 328.1875 C 13.917969 327.742188 17.191406 327.292969 20.453125 326.828125 C 35.949219 324.628906 51.464844 322.273438 66.960938 319.996094 C 80.894531 317.945312 94.964844 315.699219 108.855469 314.773438 C 121.550781 313.929688 134.265625 314.222656 146.5625 317.335938 C 158.507812 320.363281 168.207031 328.886719 178.402344 335.71875 C 194.074219 346.21875 213.941406 349.253906 232.074219 348.460938 C 253.542969 347.523438 275.125 341.761719 296.15625 335.960938 C 316.65625 330.304688 337.046875 323.824219 357.457031 317.839844 C 374.199219 312.933594 390.371094 309.761719 407.648438 311.386719 C 426.460938 313.15625 444.71875 320.949219 460.191406 331.832031 C 469.449219 338.339844 478.726562 343.082031 490.167969 341.933594 C 500.304688 340.921875 509.691406 337.730469 518.402344 331.894531 C 525.605469 327.066406 531.96875 322.519531 540.0625 319.660156 C 551.484375 315.621094 564.417969 314.304688 576.351562 314.542969 C 582.269531 314.664062 598.957031 315.152344 596.742188 325.605469 C 594.433594 336.515625 591.429688 350.09375 604.832031 354.710938 C 616.277344 358.65625 627.382812 356.066406 638.800781 352.148438 C 669.585938 341.585938 701.558594 330.972656 731.027344 316.21875 C 744.367188 309.539062 757.097656 301.800781 769.070312 292.886719 Z M 734.746094 306.050781 C 705.21875 322.355469 672.308594 332.007812 640.246094 341.273438 C 629.3125 344.433594 616.589844 347.949219 605.480469 343.605469 C 592.820312 338.65625 602.664062 325.210938 604.703125 317.132812 C 607.339844 306.679688 587.019531 306.375 581.628906 306.304688 C 567.941406 306.125 553.390625 307.789062 540.054688 311.578125 C 523.785156 316.199219 509.535156 328.785156 492.804688 330.054688 C 480.773438 330.96875 468.726562 325.902344 457.433594 321.421875 C 437.867188 313.664062 417.378906 305.558594 396.496094 303.609375 C 380.761719 302.136719 366.125 304.730469 350.855469 309.449219 C 332.660156 315.078125 314.398438 320.777344 296.035156 325.570312 C 274.988281 331.066406 253.199219 336.082031 231.75 337.003906 C 214.671875 337.738281 195.65625 335.542969 180.882812 325.597656 C 170.902344 318.878906 162.019531 311.367188 150.726562 308.167969 C 138.558594 304.71875 125.128906 304.480469 112.125 305.125 C 97.800781 305.832031 83.277344 307.824219 68.890625 309.636719 C 52.972656 311.644531 37.050781 313.75 21.140625 315.808594 C 17.644531 316.261719 14.144531 316.703125 10.644531 317.144531 L 10.644531 320.023438 C 37.765625 316.484375 64.902344 312.476562 91.96875 309.394531 C 105.613281 307.839844 119.507812 306.644531 132.914062 307.761719 C 145.371094 308.800781 158.003906 312.21875 168.355469 320.09375 C 180.183594 329.089844 191.917969 335.8125 206.414062 338.648438 C 225.253906 342.332031 245.859375 339.246094 264.667969 335.636719 C 285.542969 331.625 306.410156 325.886719 326.84375 319.734375 C 343.269531 314.785156 359.664062 308.539062 376.542969 305.902344 C 386.949219 304.277344 397.589844 305.09375 407.894531 306.933594 C 419.527344 309.007812 431.082031 312.972656 442.164062 317.386719 C 454.574219 322.332031 467.28125 329.53125 480.097656 331.917969 C 498.632812 335.367188 509.535156 327.878906 525.6875 319.550781 C 536.699219 313.875 548.945312 311.335938 560.976562 309.691406 C 571.023438 308.316406 595.40625 304.613281 600.753906 314 C 605.160156 321.738281 590.984375 332.066406 597.636719 341.382812 C 603.230469 349.210938 616.679688 349.261719 625.335938 347.683594 C 639.464844 345.109375 653.234375 340.003906 667.011719 335.53125 C 682.609375 330.46875 698.269531 325.164062 713.226562 318.761719 C 727.492188 312.65625 741.457031 305.433594 754.441406 296.640625 C 766.40625 288.539062 777 278.042969 788.554688 270.191406 C 789.976562 269.226562 791.4375 268.300781 792.929688 267.414062 L 792.929688 265.082031 C 784.707031 269.695312 777.402344 275.628906 769.949219 281.816406 C 758.9375 290.953125 747.277344 299.132812 734.746094 306.050781 Z M 638.421875 363.359375 C 627.03125 367.265625 615.925781 369.875 604.539062 365.929688 C 592.855469 361.882812 590.113281 345.488281 590.238281 334.683594 C 590.351562 324.671875 578.757812 322.8125 571.183594 322.804688 C 560.753906 322.796875 549.699219 323.960938 539.988281 328.402344 C 531.777344 332.15625 525.25 338.667969 517.476562 343.21875 C 506.390625 349.714844 493.992188 354.261719 481.917969 355.28125 C 470.898438 356.210938 462.398438 353.390625 455.390625 344.273438 C 451.449219 339.144531 448.394531 333.234375 442.929688 329.265625 C 435.222656 323.671875 425.351562 321.066406 416.390625 319.933594 C 398.050781 317.613281 379.796875 321.929688 361.679688 327.253906 C 339.46875 333.78125 317.292969 341.105469 295.105469 347.761719 C 274.839844 353.84375 253.953125 359.957031 233.152344 360.8125 C 214.417969 361.578125 194.601562 357.121094 178.292969 346.9375 C 166.949219 339.851562 156.078125 330.195312 143.054688 326.851562 C 130.925781 323.738281 118.417969 323.527344 105.914062 324.597656 C 92.464844 325.746094 78.855469 328.257812 65.378906 330.535156 C 50.269531 333.089844 35.121094 335.640625 19.972656 337.953125 C 16.867188 338.429688 13.757812 338.882812 10.644531 339.320312 L 10.644531 342.753906 C 36.195312 339.019531 61.683594 334.140625 87.082031 330.101562 C 99.9375 328.054688 113.035156 326.410156 125.722656 327.257812 C 139.378906 328.167969 151.691406 332.859375 163.152344 340.683594 C 177.519531 350.496094 192.472656 359.632812 209.40625 363.007812 C 227.289062 366.574219 246.003906 364.390625 264.042969 360.28125 C 285.890625 355.308594 307.574219 347.890625 329.125 341.027344 C 350.089844 334.351562 371.121094 326.53125 392.976562 323.238281 C 404.042969 321.566406 415.457031 321.570312 425.703125 324.472656 C 434.015625 326.832031 441.167969 331.011719 445.957031 338.988281 C 450.625 346.757812 455.617188 356.707031 464.914062 358.785156 C 486 363.496094 512.007812 352.589844 528.714844 339.332031 C 536.652344 333.035156 545.253906 328.707031 555.167969 326.644531 C 563.292969 324.957031 581.71875 322.382812 585.921875 331.402344 C 590.550781 341.339844 587.097656 354.363281 595.96875 363.933594 C 603.171875 371.699219 615.09375 372.402344 624.722656 370.621094 C 638.117188 368.144531 650.808594 362.742188 663.558594 357.574219 C 677.738281 351.832031 691.757812 345.617188 705.746094 339.484375 C 734.910156 326.703125 762.652344 312.074219 788.023438 292.863281 C 789.660156 291.625 791.292969 290.371094 792.929688 289.113281 L 792.929688 284.757812 C 772.160156 300.414062 751.34375 315.066406 727.527344 326.460938 C 698.640625 340.277344 668.398438 353.074219 638.421875 363.359375 Z M 604.25 377.148438 C 593.121094 373.109375 589.464844 355.316406 586.417969 344.898438 C 583.679688 335.554688 575.90625 331.601562 566.734375 331.632812 C 557.449219 331.664062 547.78125 333.265625 539.625 338.386719 C 517.503906 352.273438 496.121094 367.042969 470.484375 369.484375 C 461.5 370.34375 448.5 368.882812 445.035156 358.222656 C 440.320312 343.730469 437.84375 332.816406 420.800781 329.875 C 401.617188 326.5625 380.980469 332.554688 361.648438 338.300781 C 338.589844 345.15625 315.664062 353.246094 292.734375 360.628906 C 273.703125 366.757812 254.066406 373 234.445312 373.722656 C 215.820312 374.414062 197.042969 368.730469 180.628906 358.964844 C 167.757812 351.3125 155.167969 340.929688 140.855469 337.058594 C 128.773438 333.792969 116.304688 333.578125 103.785156 334.851562 C 90.734375 336.179688 77.519531 338.964844 64.457031 341.425781 C 49.59375 344.222656 34.65625 346.910156 19.699219 349.203125 C 16.6875 349.664062 13.667969 350.105469 10.644531 350.527344 L 10.644531 354.167969 C 35.8125 350.460938 60.863281 345.570312 85.804688 341.070312 C 98.390625 338.796875 110.996094 337.136719 123.636719 337.800781 C 138.347656 338.574219 151.875 344.738281 164.203125 352.597656 C 179.324219 362.230469 194.925781 372.265625 212.226562 376.09375 C 228.933594 379.792969 246.367188 377.859375 263.238281 373.773438 C 284.242188 368.683594 305.027344 360.960938 325.722656 353.957031 C 348.59375 346.21875 371.734375 337.609375 395.238281 333.972656 C 405.136719 332.441406 416.90625 331.296875 426.277344 335.671875 C 432.960938 338.789062 436.078125 345.742188 437.25 352.65625 C 438.722656 361.328125 441.515625 371.34375 451.726562 373.730469 C 475.898438 379.375 506.269531 363.84375 525.945312 351.460938 C 534.792969 345.894531 543.011719 339.210938 552.925781 336.300781 C 561.347656 333.832031 575.773438 332.363281 581.121094 341.332031 C 584.007812 346.175781 585.527344 352.261719 587.257812 358.242188 C 586.929688 357.484375 586.585938 356.75 586.210938 356.054688 C 581.691406 347.679688 573.613281 341.335938 563.597656 341.574219 C 554.226562 341.800781 546.765625 344.945312 538.476562 349.75 C 513.257812 364.371094 486.523438 380.894531 457.894531 384.003906 C 448.96875 384.972656 434.039062 385.015625 431.609375 373.007812 C 428.859375 359.417969 433.0625 346.335938 417.417969 341.871094 C 399.132812 336.648438 375.570312 345.191406 357.007812 350.988281 C 334.421875 358.042969 312.023438 366.421875 289.625 374.121094 C 272.101562 380.140625 253.976562 386.285156 235.863281 386.832031 C 217.621094 387.386719 200.351562 380.742188 184.398438 371.507812 C 170.433594 363.425781 156.464844 352.695312 140.96875 348.347656 C 128.5625 344.867188 115.925781 344.390625 103.070312 345.824219 C 90.21875 347.257812 77.175781 350.230469 64.304688 352.6875 C 49.414062 355.535156 34.359375 358.160156 19.367188 360.414062 C 16.464844 360.847656 13.558594 361.265625 10.644531 361.675781 L 10.644531 365.632812 C 35.855469 362.003906 60.960938 357.308594 85.941406 352.679688 C 98.558594 350.34375 111.117188 348.597656 123.761719 349.371094 C 139.363281 350.332031 154.015625 357.007812 167.308594 365.144531 C 182.554688 374.480469 198.164062 385.191406 215.277344 389.316406 C 230.671875 393.027344 246.8125 391.414062 262.367188 387.46875 C 281.964844 382.5 301.328125 374.738281 320.605469 367.8125 C 343.507812 359.582031 366.761719 350.5625 390.351562 346.738281 C 399.367188 345.273438 411.609375 343.472656 419.417969 348.871094 C 425.101562 352.800781 424.867188 361.144531 424.667969 367.425781 C 424.335938 377.941406 427.375 386.023438 438 388.824219 C 463.234375 395.472656 497.074219 377.289062 520.035156 364.441406 C 530.34375 358.671875 540.65625 351.308594 551.898438 347.375 C 561.453125 344.027344 573.039062 344.292969 579.960938 352.480469 C 584.230469 357.53125 585.621094 364.183594 587.257812 370.695312 C 586.828125 369.527344 586.363281 368.410156 585.84375 367.367188 C 581.480469 358.617188 573.585938 352.65625 562.96875 352.640625 C 552.726562 352.621094 543.511719 357.292969 534.71875 361.878906 C 507.046875 376.316406 477.527344 395.238281 446.1875 398.28125 C 437.210938 399.15625 420.347656 399.785156 417.589844 387.960938 C 415.109375 377.320312 423.800781 359.769531 408.949219 355.40625 C 390.527344 349.992188 367.476562 358.953125 349.957031 364.703125 C 328.617188 371.707031 307.488281 380.09375 286.363281 387.78125 C 270.566406 393.535156 254.25 399.273438 237.292969 399.777344 C 219.742188 400.296875 203.511719 393.039062 188.824219 384.273438 C 174.3125 375.613281 159.460938 364.941406 143.273438 360.375 C 130.472656 356.761719 117.480469 356.082031 104.214844 357.496094 C 91.226562 358.878906 78.019531 361.832031 65 364.21875 C 49.867188 366.996094 34.558594 369.519531 19.320312 371.710938 C 16.433594 372.128906 13.542969 372.527344 10.644531 372.917969 L 10.644531 377.171875 C 36.308594 373.65625 61.886719 369.199219 87.335938 364.695312 C 100.226562 362.414062 113.023438 360.734375 125.914062 361.625 C 142.175781 362.746094 157.617188 369.6875 171.554688 378.050781 C 186.230469 386.859375 201.414062 398.355469 218.117188 402.324219 C 232.675781 405.78125 247.238281 404.675781 261.703125 400.929688 C 279.585938 396.300781 297.234375 388.746094 314.78125 382.0625 C 336.738281 373.695312 359.085938 364.660156 381.800781 360.796875 C 389.773438 359.441406 402.402344 357.335938 408.527344 363.320312 C 413.152344 367.835938 411.378906 376.417969 410.644531 382.617188 C 409.332031 393.699219 414.957031 401.585938 426.140625 403.410156 C 455.34375 408.167969 487.488281 390.792969 512.386719 377.890625 C 524.726562 371.496094 536.996094 363.6875 550.273438 359.199219 C 560.128906 355.863281 572.394531 354.976562 579.449219 363.933594 C 583.402344 368.957031 584.71875 375.480469 586.292969 381.859375 C 585.917969 380.800781 585.523438 379.769531 585.089844 378.78125 C 580.984375 369.367188 571.777344 363.914062 561.628906 364.117188 C 550.054688 364.347656 539.3125 369.554688 529.179688 374.492188 C 500.238281 388.597656 469.746094 408.609375 437.429688 411.765625 C 427.566406 412.730469 410.523438 413.242188 405.433594 402.40625 C 400.988281 392.9375 410.699219 374.5 397.660156 369.839844 C 380.867188 363.835938 357.863281 373.363281 341.789062 378.90625 C 322.226562 385.652344 302.878906 393.824219 283.527344 401.171875 C 268.960938 406.703125 254.195312 411.546875 238.601562 412.1875 C 222.167969 412.863281 206.730469 405.460938 193.109375 396.984375 C 178.660156 387.992188 163.363281 377.371094 146.851562 372.796875 C 133.695312 369.152344 120.15625 368.0625 106.5 369.519531 C 93.066406 370.953125 79.632812 373.660156 66.273438 375.929688 C 50.746094 378.566406 35.046875 380.953125 19.417969 383.058594 C 16.5 383.449219 13.574219 383.832031 10.644531 384.203125 L 10.644531 388.734375 C 37.003906 385.355469 63.300781 381.199219 89.46875 376.941406 C 102.761719 374.777344 115.945312 373.210938 129.199219 374.226562 C 145.84375 375.503906 161.777344 382.472656 176.046875 391.035156 C 190.03125 399.425781 204.324219 410.945312 220.269531 414.765625 C 233.984375 418.050781 247.867188 417.210938 261.488281 413.726562 C 277.628906 409.597656 293.492188 402.523438 309.238281 396.195312 C 329.554688 388.027344 350.300781 379.183594 371.339844 375.542969 C 378.152344 374.363281 390.835938 372.128906 395.761719 378.359375 C 399.644531 383.269531 397.621094 391.363281 397.582031 397.539062 C 397.5 410.128906 408.222656 415.085938 418.585938 416.832031 C 447.253906 421.664062 478.785156 404.320312 504.417969 391.425781 C 518.246094 384.464844 532.113281 376.261719 546.917969 371.492188 C 556.902344 368.273438 570.863281 365.894531 578.28125 375.566406 C 581.847656 380.222656 583.339844 386.007812 584.851562 391.753906 C 584.636719 391.242188 584.417969 390.734375 584.1875 390.238281 C 579.652344 380.433594 569.765625 375.429688 559.226562 375.878906 C 546.390625 376.425781 534.347656 381.953125 522.957031 387.289062 C 494.671875 400.535156 465.160156 420.867188 433.722656 423.914062 C 422.015625 425.046875 406.640625 424.671875 397.570312 415.675781 C 389.234375 407.410156 397.21875 389.523438 385.476562 384.566406 C 370.382812 378.195312 348.085938 387.898438 333.765625 393.078125 C 316.285156 399.398438 298.984375 407.171875 281.660156 413.847656 C 267.988281 419.113281 254.175781 423.179688 239.535156 423.773438 C 223.941406 424.40625 209.230469 417.683594 196.441406 409.347656 C 182.144531 400.03125 167.058594 390.167969 150.949219 385.378906 C 137.613281 381.414062 123.421875 380.542969 109.367188 381.726562 C 95.585938 382.886719 81.589844 385.585938 67.769531 387.707031 C 51.761719 390.167969 35.613281 392.394531 19.527344 394.40625 C 16.570312 394.773438 13.609375 395.132812 10.644531 395.484375 L 10.644531 400.28125 C 37.773438 397.019531 64.867188 393.1875 91.835938 389.257812 C 105.585938 387.253906 119.238281 385.824219 132.914062 386.964844 C 149.59375 388.355469 165.6875 395.097656 179.890625 403.8125 C 192.972656 411.84375 206.058594 422.609375 220.980469 426.75 C 234.636719 430.542969 248.066406 429.359375 261.691406 425.6875 C 276.378906 421.726562 290.71875 415.648438 304.941406 409.6875 C 323.175781 402.046875 341.761719 393.71875 360.703125 390.363281 C 367.09375 389.234375 378.644531 387.335938 383.242188 393.332031 C 386.851562 398.039062 386.28125 405.980469 387.851562 411.511719 C 390.894531 422.242188 406.515625 427.765625 416.824219 429.058594 C 445.078125 432.609375 472.574219 417.265625 497.5625 404.660156 C 512.328125 397.210938 527.125 389.175781 542.703125 384.015625 C 553.082031 380.578125 568.574219 377.304688 576.789062 387.289062 C 580.378906 391.652344 582.121094 397.042969 583.773438 402.46875 C 583.644531 402.199219 583.511719 401.929688 583.378906 401.667969 C 578.175781 391.488281 567.359375 387.082031 556.359375 387.769531 C 542.535156 388.628906 529.449219 394.265625 517.148438 399.972656 C 490.203125 412.476562 462.183594 432.949219 432.695312 436.597656 C 419.101562 438.28125 407.023438 435.472656 395.710938 427.488281 C 390.085938 423.515625 386.355469 418.851562 383.640625 412.460938 C 381.382812 407.144531 379.960938 401.429688 374.300781 398.980469 C 360.285156 392.921875 340.371094 401.695312 327.121094 406.6875 C 311.726562 412.492188 296.417969 419.257812 281.109375 425.566406 C 267.367188 431.234375 253.765625 436.96875 239.011719 437.90625 C 223.679688 438.882812 210.03125 429.382812 197.984375 421.089844 C 184.597656 411.878906 170.230469 402.476562 154.839844 397.898438 C 141.203125 393.84375 126.652344 392.921875 112.265625 393.941406 C 97.984375 394.957031 83.464844 397.472656 69.128906 399.445312 C 52.652344 401.714844 36.054688 403.78125 19.511719 405.714844 C 16.558594 406.058594 13.601562 406.398438 10.644531 406.734375 L 10.644531 411.777344 C 38.449219 408.585938 66.246094 405.074219 93.945312 401.496094 C 108.097656 399.667969 122.292969 398.355469 136.351562 399.617188 C 152.667969 401.078125 168.476562 407.320312 182.203125 416.117188 C 194.675781 424.109375 206.460938 437.410156 220.355469 442.378906 C 234.03125 447.265625 247.53125 445.453125 261.039062 440.558594 C 275.082031 435.46875 288.820312 428.015625 302.84375 422.027344 C 318.832031 415.195312 335.007812 407.601562 351.613281 404.652344 C 358.050781 403.511719 367.933594 402.230469 373.066406 407.589844 C 377.445312 412.160156 379.625 419.140625 383.820312 423.855469 C 391.785156 432.808594 402.992188 441.21875 415.375 442.917969 C 443.042969 446.707031 469.066406 429.925781 493.257812 417.203125 C 507.957031 409.472656 522.851562 401.640625 538.507812 396.535156 C 549.519531 392.945312 566.121094 388.964844 575.328125 399 C 578.871094 402.859375 580.882812 407.636719 582.652344 412.550781 C 576.757812 402.554688 564.496094 398.640625 553.648438 399.617188 C 539.433594 400.894531 525.871094 406.152344 512.878906 412.242188 C 486.300781 424.699219 460.035156 446.566406 430.960938 450.804688 C 417.226562 452.808594 404.972656 449.976562 394.464844 440.78125 C 385.230469 432.699219 378.144531 417.203125 366.023438 412.488281 C 352.660156 407.285156 335.566406 414.382812 323.070312 419.21875 C 308.34375 424.921875 294.289062 432.230469 280.304688 439.738281 C 266.898438 446.9375 253.296875 454.101562 238.128906 455.445312 C 221.941406 456.875 208.617188 444.800781 197.675781 434.230469 C 186.144531 423.089844 172.765625 414.578125 157.785156 410.125 C 144 406.023438 129.210938 405.132812 114.640625 405.996094 C 99.867188 406.875 84.847656 409.203125 70.011719 411.035156 C 53.136719 413.121094 36.171875 415.050781 19.25 416.945312 C 16.382812 417.265625 13.515625 417.582031 10.644531 417.902344 L 10.644531 423.289062 C 38.828125 419.667969 67.140625 416.722656 95.304688 413.5 C 109.824219 411.835938 124.414062 410.644531 138.824219 411.964844 C 154.09375 413.367188 170.667969 418.5625 182.238281 428.042969 C 194.191406 437.832031 204.476562 455.398438 219.453125 461.328125 C 233.128906 466.738281 246.695312 464.285156 259.972656 458.503906 C 274.398438 452.226562 288.199219 442.90625 302.195312 435.128906 C 316.066406 427.421875 330.316406 420.785156 345.761719 417.804688 C 352.625 416.480469 361.105469 416.355469 367.296875 420.484375 C 373.726562 424.765625 378.265625 430.535156 382.671875 436.699219 C 389.90625 446.832031 400.503906 456.5625 413.277344 458.175781 C 441.921875 461.800781 468.296875 443.011719 492.273438 429.058594 C 505.996094 421.070312 520.234375 413.675781 535.242188 408.804688 C 546.84375 405.042969 564.253906 400.8125 574.28125 410.597656 C 577.398438 413.640625 579.5625 417.550781 581.257812 421.632812 C 574.429688 412.953125 562.0625 410.238281 551.730469 411.25 C 537.59375 412.632812 524.214844 417.601562 511.269531 423.789062 C 483.496094 437.0625 458.707031 460.535156 428.828125 465.871094 C 415.234375 468.296875 402.515625 465.5 392.496094 455.683594 C 382.839844 446.230469 377.34375 427.828125 362.585938 424.472656 C 348.511719 421.273438 334.949219 425.183594 322.023438 431.253906 C 307.160156 438.238281 293.105469 447.847656 279.046875 456.714844 C 266.28125 464.769531 252.425781 473.425781 237.050781 474.898438 C 220.117188 476.519531 206.945312 463.304688 197.042969 451.503906 C 186.257812 438.652344 175.5625 426.433594 159.066406 421.832031 C 145.039062 417.917969 130.496094 416.988281 115.957031 417.722656 C 100.769531 418.488281 85.347656 420.609375 70.070312 422.367188 C 52.996094 424.328125 36.023438 427.136719 19.199219 430.449219 C 16.496094 430.984375 13.578125 431.425781 10.644531 431.871094 L 10.644531 447.683594 C 34.304688 443.328125 68.285156 429.023438 95.476562 425.347656 C 110.070312 423.375 124.980469 422.488281 139.597656 423.71875 C 156.207031 425.117188 170.539062 431.867188 181.53125 444.058594 C 192.554688 456.28125 202.78125 475.578125 218.414062 481.917969 C 231.925781 487.398438 245.695312 484.339844 258.699219 478.035156 C 273.363281 470.929688 287.082031 460.476562 300.957031 451.289062 C 314.597656 442.257812 328.484375 433.351562 344.269531 429.902344 C 351.164062 428.398438 359.949219 428.515625 366.109375 432.742188 C 372.765625 437.308594 376.582031 444.847656 380.695312 451.585938 C 387.320312 462.429688 397.851562 472.589844 410.890625 474.054688 C 440.382812 477.371094 467.28125 457.082031 491.355469 441.898438 C 504.871094 433.375 518.683594 425.574219 533.824219 420.574219 C 546.132812 416.507812 563.371094 412.882812 574.042969 421.976562 C 577.175781 424.648438 579.148438 428.320312 580.671875 432.226562 C 573.851562 423.824219 561.40625 421.484375 551.253906 422.492188 C 536.886719 423.914062 523.464844 428.871094 510.589844 435.589844 C 483.109375 449.9375 457.714844 475.761719 426.613281 481.121094 C 412.714844 483.515625 400.089844 481.3125 390.171875 471.378906 C 380.574219 461.761719 375.984375 441.332031 361.550781 437.234375 C 347.230469 433.167969 333.460938 438.738281 320.707031 445.972656 C 305.8125 454.421875 291.773438 465.359375 277.554688 475.195312 C 265.089844 483.816406 251.367188 492.914062 235.929688 494.777344 C 218.839844 496.839844 205.636719 483.527344 196.253906 471.308594 C 185.964844 457.910156 174.96875 441.039062 158.574219 434.835938 C 144.875 429.65625 130.347656 428.753906 115.886719 430.085938 C 100.632812 431.492188 85.433594 435.410156 70.527344 439.753906 C 53.890625 444.609375 37.429688 450.410156 21.042969 456.222656 C 17.832031 457.359375 14.207031 458.371094 10.644531 459.390625 L 10.644531 481.613281 C 34.152344 474.652344 67.925781 452.726562 95.84375 444.203125 C 110.015625 439.875 124.5625 437.328125 139.199219 438.804688 C 156.261719 440.527344 170.257812 450.722656 180.738281 463.859375 C 191.074219 476.8125 201.398438 496.582031 217.386719 502.464844 C 230.925781 507.449219 244.660156 504.101562 257.425781 497.648438 C 272.167969 490.199219 285.734375 479.230469 299.371094 469.226562 C 312.65625 459.476562 326.578125 448.339844 342.925781 444.335938 C 349.90625 442.621094 358.492188 442.761719 364.40625 447.320312 C 370.773438 452.230469 374.320312 460.957031 378.277344 467.589844 C 384.808594 478.53125 395.039062 488.21875 408.589844 489.761719 C 438.488281 493.15625 466.640625 471.1875 490.050781 455.578125 C 503.859375 446.367188 517.925781 437.597656 533.539062 432.132812 C 545.464844 427.960938 563.425781 423.941406 573.703125 433.304688 C 576.554688 435.902344 578.414062 439.296875 579.859375 442.925781 C 572.953125 434.941406 560.90625 432.625 550.921875 433.71875 C 536.207031 435.324219 522.511719 440.960938 509.519531 448.238281 C 481.953125 463.6875 456.34375 490.1875 424.621094 495.886719 C 410.855469 498.359375 397.976562 496.625 387.871094 487.035156 C 378.011719 477.683594 373.875 456.5 359.804688 452.132812 C 345.351562 447.648438 331.460938 454.632812 318.945312 462.605469 C 304.222656 471.984375 290.335938 483.644531 276.046875 493.851562 C 263.789062 502.613281 250.230469 511.460938 234.929688 513.582031 C 218.089844 515.921875 204.785156 504.105469 195.417969 491.960938 C 185.054688 478.53125 174.195312 460.472656 158.164062 453.386719 C 144.628906 447.40625 130.363281 446.664062 116.09375 449.652344 C 100.921875 452.824219 86.367188 459.683594 72.101562 466.605469 C 55.992188 474.425781 40.136719 483.082031 24.179688 491.136719 C 20.042969 493.222656 15.164062 495.101562 10.644531 497.003906 L 10.644531 523.15625 C 34.128906 515.4375 68.371094 485 96.988281 470.835938 C 110.386719 464.207031 124.363281 459.457031 139.15625 460.222656 C 155.960938 461.089844 169.707031 472.585938 179.914062 485.4375 C 189.945312 498.0625 200.515625 516.519531 216.507812 521.273438 C 230.074219 525.308594 243.734375 522.042969 256.347656 515.84375 C 271.023438 508.636719 284.425781 497.824219 297.695312 487.640625 C 310.945312 477.472656 324.660156 465.421875 341.035156 460.671875 C 347.875 458.6875 356.4375 458.660156 362.1875 463.410156 C 368.359375 468.507812 371.769531 477.046875 375.789062 483.792969 C 382.355469 494.808594 393.621094 503.296875 406.734375 504.492188 C 437.101562 507.261719 464.949219 485.921875 488.570312 469.628906 C 502.660156 459.910156 516.90625 450.441406 532.867188 444.394531 C 544.738281 439.894531 562.832031 435.402344 573.179688 444.929688 C 575.78125 447.324219 577.539062 450.386719 578.917969 453.679688 C 571.882812 446.113281 560.085938 444.1875 550.335938 445.445312 C 535.28125 447.386719 521.28125 453.597656 508.226562 461.375 C 481.203125 477.46875 455 503.894531 423.167969 509.484375 C 409.578125 511.867188 396.519531 510.59375 385.957031 501.828125 C 375.59375 493.226562 371.351562 473.457031 357.667969 468.207031 C 343.84375 462.898438 327.96875 472.5625 317.007812 480.019531 C 302.664062 489.777344 289 501.484375 274.734375 511.371094 C 262.28125 520 249.238281 527.332031 234.207031 529.808594 C 218.214844 532.445312 204.460938 523.328125 194.632812 511.78125 C 184.152344 499.472656 173.238281 481.835938 157.855469 475.332031 C 144.292969 469.601562 130.414062 470.046875 116.769531 474.867188 C 101.703125 480.1875 87.910156 489.800781 74.328125 499.011719 C 58.886719 509.484375 43.648438 520.566406 27.929688 530.375 C 22.679688 533.648438 16.082031 536.546875 10.644531 539.472656 L 10.644531 565.742188 C 35.027344 559.460938 69.664062 521.363281 98.546875 501.5625 C 111.039062 493 124.351562 485.859375 139.3125 485.128906 C 155.238281 484.351562 168.855469 495.148438 179.113281 506.761719 C 189.144531 518.121094 200.175781 533.667969 215.921875 536.640625 C 229.621094 539.230469 243.082031 536.585938 255.667969 531.113281 C 270.136719 524.820312 283.375 514.925781 296.199219 505.21875 C 309.410156 495.222656 322.835938 483.011719 338.925781 477.800781 C 345.609375 475.636719 354.113281 475.164062 359.804688 480.003906 C 365.882812 485.171875 369.148438 493.078125 373.605469 499.253906 C 381.355469 509.992188 392.488281 516.070312 405.703125 517.449219 C 435.390625 520.546875 463.304688 500.199219 487.136719 483.582031 C 501.472656 473.585938 515.851562 463.660156 531.984375 457.105469 C 543.78125 452.308594 562.058594 447.195312 572.566406 456.738281 C 577.601562 461.3125 579.492188 468.417969 581.582031 474.824219 C 583.421875 480.472656 586.113281 486.105469 590.546875 490.152344 C 598.734375 497.617188 610.898438 498.617188 621.335938 497.128906 C 634.589844 495.238281 647.394531 490.851562 660.175781 486.546875 C 674.445312 481.738281 688.558594 476.269531 702.003906 469.730469 C 730.816406 455.722656 756.953125 436.300781 783.644531 418.449219 C 786.75 416.371094 789.847656 414.257812 792.929688 412.121094 L 792.929688 404.339844 C 769.355469 420.941406 745.070312 437.070312 720.261719 451.628906 C 693.152344 467.539062 664.261719 478.738281 634.257812 487.710938 C 623.144531 491.035156 612.242188 493.003906 601.320312 489.359375 C 595.5 487.417969 592.132812 482.761719 589.640625 477.304688 C 590.074219 477.78125 590.523438 478.246094 590.996094 478.6875 C 599.023438 486.175781 611.328125 487.21875 621.644531 485.726562 C 634.960938 483.796875 647.742188 479.164062 660.484375 474.539062 C 674.753906 469.359375 688.828125 463.433594 702.28125 456.582031 C 730.355469 442.289062 757.628906 424.574219 783.921875 406.992188 C 786.933594 404.980469 789.9375 402.925781 792.929688 400.855469 L 792.929688 393.390625 C 744.011719 427.648438 691.714844 458.433594 634.636719 476.363281 C 623.5 479.859375 612.351562 481.929688 601.613281 478.136719 C 595.453125 475.960938 592.125 470.960938 589.667969 465.191406 C 590.238281 465.875 590.839844 466.527344 591.484375 467.144531 C 599.40625 474.71875 611.6875 475.765625 621.953125 474.191406 C 635.320312 472.140625 648.074219 467.238281 660.789062 462.328125 C 675.03125 456.832031 689.046875 450.585938 702.558594 443.613281 C 730.425781 429.226562 758.0625 413.011719 784.199219 395.539062 C 787.117188 393.585938 790.027344 391.597656 792.929688 389.589844 L 792.929688 382.441406 C 744.257812 416.351562 691.339844 446.269531 635.015625 464.878906 C 623.886719 468.554688 612.648438 470.753906 601.910156 466.90625 C 595.429688 464.582031 592.09375 459.097656 589.597656 452.890625 C 590.328125 453.839844 591.117188 454.742188 591.980469 455.585938 C 599.847656 463.257812 612.007812 464.277344 622.257812 462.585938 C 635.664062 460.371094 648.390625 455.214844 661.097656 450.101562 C 675.269531 444.394531 689.214844 438.007812 702.832031 431.140625 C 730.855469 417.011719 758.375 401.53125 784.472656 384.082031 C 787.300781 382.191406 790.121094 380.265625 792.929688 378.324219 L 792.929688 371.492188 C 744.246094 405.253906 691.425781 434.035156 635.394531 453.347656 C 624.277344 457.179688 612.933594 459.542969 602.207031 455.675781 C 595.460938 453.242188 592.203125 447.359375 589.671875 440.804688 C 590.515625 441.957031 591.441406 443.050781 592.460938 444.054688 C 600.304688 451.777344 612.324219 452.769531 622.566406 450.957031 C 635.988281 448.585938 648.679688 443.25 661.40625 438.042969 C 675.488281 432.277344 689.457031 426.050781 703.109375 419.449219 C 731.292969 405.824219 758.710938 390.039062 784.75 372.628906 C 787.484375 370.796875 790.210938 368.9375 792.929688 367.058594 L 792.929688 360.542969 C 744.1875 394.230469 691.679688 422.101562 635.769531 441.875 C 624.660156 445.804688 613.210938 448.34375 602.503906 444.449219 C 595.339844 441.84375 591.847656 435.027344 588.996094 427.730469 C 590.089844 429.484375 591.363281 431.125 592.910156 432.601562 C 600.886719 440.210938 612.636719 441.265625 622.875 439.378906 C 636.277344 436.90625 648.957031 431.488281 661.714844 426.351562 C 675.800781 420.679688 689.761719 414.582031 703.382812 407.996094 C 731.570312 394.367188 758.984375 378.582031 785.023438 361.171875 C 787.664062 359.40625 790.300781 357.609375 792.929688 355.800781 L 792.929688 349.597656 C 744.402344 383.304688 691.839844 410.824219 636.148438 430.554688 C 625.011719 434.5 613.53125 437.132812 602.792969 433.234375 C 595.339844 430.527344 591.816406 423.449219 588.960938 415.886719 C 590.113281 417.835938 591.503906 419.648438 593.261719 421.25 C 601.351562 428.613281 612.925781 429.808594 623.183594 427.910156 C 636.589844 425.429688 649.265625 420.085938 662.023438 414.917969 C 676.09375 409.21875 690.046875 403.121094 703.660156 396.539062 C 731.84375 382.914062 759.203125 367.117188 785.300781 349.714844 C 787.859375 348.011719 790.398438 346.261719 792.929688 344.5 L 792.929688 338.488281 C 744.046875 371.863281 692.070312 400.335938 636.527344 419.417969 C 625.300781 423.273438 614.117188 425.980469 603.078125 422.023438 C 595.03125 419.136719 591.683594 411.710938 589.007812 403.8125 C 590.167969 406.027344 591.617188 408.074219 593.539062 409.859375 C 601.5 417.230469 613.390625 418.367188 623.488281 416.496094 C 636.886719 414.019531 649.578125 408.617188 662.328125 403.449219 C 676.390625 397.753906 690.332031 391.660156 703.9375 385.085938 C 732.113281 371.460938 759.3125 355.644531 785.382812 338.199219 C 787.902344 336.511719 790.417969 334.808594 792.929688 333.09375 L 792.929688 327.628906 C 744.273438 360.945312 692.183594 389.21875 636.90625 408.207031 C 625.628906 412.078125 614.570312 414.726562 603.363281 410.804688 C 594.570312 407.730469 591.550781 399.261719 588.996094 390.632812 C 590.195312 393.503906 591.78125 396.15625 594.09375 398.390625 C 601.824219 405.875 613.863281 406.867188 623.796875 405.027344 C 637.195312 402.550781 649.886719 397.148438 662.636719 391.980469 C 676.6875 386.289062 690.617188 380.203125 704.210938 373.628906 C 732.40625 359.996094 759.742188 344.101562 785.832031 326.800781 C 788.207031 325.226562 790.570312 323.621094 792.929688 322.003906 L 792.929688 316.914062 C 744.808594 350.378906 692.074219 378.179688 637.285156 396.996094 C 625.988281 400.875 614.890625 403.523438 603.664062 399.585938 C 594.976562 396.539062 592.25 387.671875 589.816406 379.039062 C 590.984375 381.929688 592.519531 384.609375 594.765625 386.894531 C 602.25 394.515625 614.316406 395.371094 624.105469 393.558594 C 637.503906 391.082031 650.195312 385.679688 662.945312 380.511719 C 676.984375 374.824219 690.90625 368.742188 704.488281 362.171875 C 732.679688 348.542969 760.605469 333.0625 786.550781 315.484375 C 788.6875 314.035156 790.8125 312.554688 792.929688 311.058594 L 792.929688 306.242188 C 745.375 339.957031 692.039062 367.117188 637.664062 385.78125 C 626.335938 389.671875 615.128906 392.355469 603.957031 388.367188 C 595.074219 385.195312 592.605469 375.53125 590.035156 366.558594 C 591.386719 369.863281 593.074219 372.902344 595.425781 375.398438 C 602.710938 383.128906 614.734375 383.882812 624.414062 382.089844 C 637.8125 379.613281 650.503906 374.210938 663.253906 369.042969 C 677.28125 363.359375 691.191406 357.28125 704.765625 350.71875 C 733.199219 336.96875 761.644531 322.558594 787.34375 304.191406 C 789.210938 302.859375 791.070312 301.5 792.929688 300.132812 L 792.929688 295.492188 C 745.601562 329.570312 692.589844 355.851562 638.042969 374.570312 C 626.683594 378.46875 615.371094 381.1875 604.25 377.148438 Z M 645.207031 331.507812 C 634.339844 334.253906 620.71875 338.039062 609.789062 333.65625 C 599.347656 329.46875 612.078125 314.859375 612.867188 308.726562 C 614.257812 297.898438 592.929688 297.554688 586.367188 297.535156 C 571.09375 297.492188 555.132812 299.761719 540.148438 303.570312 C 522.84375 307.96875 505.664062 319.386719 488.074219 320.234375 C 474.996094 320.867188 461.351562 316.289062 448.589844 312.664062 C 427.664062 306.726562 406.269531 298.230469 384.878906 295.96875 C 370.390625 294.4375 357.144531 296.820312 343.175781 301.503906 C 327.0625 306.910156 310.753906 312.164062 294.351562 316.394531 C 274.433594 321.535156 253.765625 325.8125 233.4375 326.667969 C 217.328125 327.34375 198.519531 325.957031 184.65625 316.28125 C 174.878906 309.453125 166.222656 302.480469 154.886719 298.996094 C 142.394531 295.152344 128.398438 294.910156 115.226562 295.386719 C 100.523438 295.917969 85.625 297.695312 70.847656 299.292969 C 54.53125 301.0625 38.214844 302.929688 21.90625 304.832031 C 18.152344 305.269531 14.398438 305.703125 10.644531 306.136719 L 10.644531 308.761719 C 38.65625 305.421875 66.703125 301.882812 94.6875 299.1875 C 108.703125 297.835938 123.027344 296.820312 136.777344 298.15625 C 149.402344 299.382812 162.496094 302.792969 172.902344 310.824219 C 184.046875 319.421875 194.773438 325.480469 208.605469 327.953125 C 226.921875 331.222656 246.960938 328.457031 265.304688 325.160156 C 284.421875 321.726562 303.589844 316.769531 322.203125 310.949219 C 336.777344 306.394531 351.1875 300.542969 366.222656 297.980469 C 375.984375 296.316406 386.097656 297.390625 395.703125 299.171875 C 407.730469 301.402344 419.753906 305.375 431.574219 308.988281 C 446.257812 313.480469 461.515625 319.171875 476.511719 321.390625 C 494.640625 324.078125 506.304688 317.980469 522.691406 311.285156 C 535.753906 305.949219 550 303.148438 563.992188 301.1875 C 575.324219 299.597656 601 295.121094 608.503906 305.40625 C 614.050781 313.011719 599.667969 323.015625 603.007812 331.503906 C 606.160156 339.511719 621.808594 337.902344 628.324219 337.0625 C 643.078125 335.164062 658.089844 330.234375 672.648438 325.746094 C 688.105469 320.980469 703.574219 315.585938 718.082031 308.75 C 731.414062 302.472656 744.230469 294.789062 755.996094 285.585938 C 766.757812 277.171875 776.359375 267.683594 788.878906 262.25 C 790.214844 261.667969 791.566406 261.125 792.929688 260.605469 L 792.929688 259.457031 C 772.179688 267.621094 757.402344 283.464844 738.046875 295.753906 C 709.835938 313.660156 677.117188 323.445312 645.207031 331.507812 Z M 737.875 257.015625 C 728.027344 261.9375 719.613281 269.128906 711 275.867188 C 699.953125 284.507812 687.878906 290.910156 674.960938 295.574219 C 665.578125 298.960938 652.625 303.121094 642.820312 298.839844 C 637.378906 296.460938 636.011719 291.117188 633.921875 286.007812 C 630.792969 278.347656 626.148438 271.453125 620.582031 265.886719 C 610.269531 255.574219 595.191406 249.292969 579.945312 250.492188 C 565.570312 251.621094 552.363281 256.539062 539.066406 262.246094 C 510.789062 274.386719 480.867188 287.488281 449.554688 288.410156 C 433.417969 288.882812 416.542969 286.441406 401.910156 280.691406 C 388.832031 275.554688 381.019531 259.511719 367.066406 256.535156 C 353.316406 253.601562 340.25 257.945312 327.273438 263.300781 C 313.179688 269.125 299.125 276.136719 284.863281 281.335938 C 270.421875 286.601562 254.960938 290.359375 239.804688 290.808594 C 225.113281 291.246094 211.304688 287.652344 198.980469 278.601562 C 187.261719 270 175.179688 260.847656 161.75 256.40625 C 148.585938 252.058594 134.121094 251.164062 119.984375 251.621094 C 104.898438 252.105469 89.558594 253.945312 74.390625 255.410156 C 57.53125 257.035156 40.617188 258.613281 23.757812 260.296875 C 19.386719 260.734375 15.015625 261.183594 10.644531 261.636719 L 10.644531 263.230469 C 40.222656 260.136719 69.875 257.300781 99.429688 254.664062 C 113.996094 253.367188 128.660156 252.496094 143.050781 254.085938 C 158.214844 255.765625 173.097656 261.695312 185.617188 270.789062 C 196.355469 278.589844 207.359375 288.414062 220.703125 290.765625 C 234.929688 293.273438 249.441406 292.074219 263.410156 289.070312 C 277.777344 285.980469 291.789062 280.640625 305.375 274.589844 C 319.546875 268.28125 333.953125 260.695312 348.757812 257.960938 C 357.011719 256.433594 365.140625 256.804688 372.5625 260.34375 C 379.246094 263.535156 383.910156 270.507812 389.878906 275.152344 C 401.339844 284.070312 417.921875 287.324219 432.277344 288.773438 C 461.261719 291.695312 488.007812 284.449219 514.898438 274.332031 C 530.488281 268.464844 545.855469 260.765625 561.785156 255.863281 C 579.070312 250.546875 596.742188 250.417969 611.496094 260.175781 C 618.601562 264.878906 624.679688 271.527344 629.011719 279.457031 C 631.871094 284.703125 632.679688 291.144531 636.1875 295.96875 C 641.472656 303.234375 652.722656 302.042969 660.03125 300.804688 C 672.6875 298.660156 685.347656 293.5625 696.789062 287.101562 C 707.039062 281.308594 715.886719 273.371094 725.359375 266.46875 C 744.65625 252.410156 766.3125 250.828125 788.449219 245.070312 C 789.957031 244.679688 791.453125 244.238281 792.929688 243.753906 L 792.929688 241.953125 C 774.890625 248.035156 755.296875 248.308594 737.875 257.015625 Z M 709.230469 287.714844 C 696.566406 295.371094 682.601562 300.792969 668.691406 304.925781 C 659.027344 307.800781 645.074219 312.152344 635.394531 307.804688 C 630.730469 305.710938 630.777344 300.894531 630.550781 296.351562 C 630.195312 289.234375 629.089844 284.09375 625.007812 278.628906 C 616.738281 267.542969 599.910156 262.945312 586.074219 263.742188 C 570.65625 264.628906 556.039062 269.246094 541.417969 274.34375 C 515.042969 283.53125 487.046875 295.996094 458.660156 296.53125 C 442.359375 296.835938 425.4375 294.046875 410.292969 289.574219 C 401.707031 287.039062 393.253906 283.226562 385.421875 278.339844 C 379.402344 274.585938 373.648438 269.214844 366.746094 267.761719 C 353.042969 264.871094 339.90625 269.121094 326.992188 274.527344 C 313.585938 280.144531 300.085938 286.457031 286.296875 290.910156 C 270.839844 295.90625 254.359375 299.371094 238.300781 299.894531 C 223.839844 300.367188 208.894531 298.089844 196.847656 288.929688 C 185.773438 280.511719 174.089844 272.230469 161.144531 268.039062 C 147.945312 263.761719 133.503906 262.808594 119.371094 263.203125 C 104.34375 263.621094 89.058594 265.371094 73.9375 266.765625 C 57.117188 268.316406 40.238281 269.835938 23.421875 271.492188 C 19.164062 271.914062 14.90625 272.351562 10.644531 272.796875 L 10.644531 274.683594 C 40.046875 271.628906 69.515625 268.871094 98.902344 266.394531 C 113.433594 265.167969 128.222656 264.246094 142.40625 265.984375 C 157.511719 267.835938 172.199219 273.324219 184.722656 282.054688 C 195.453125 289.535156 204.835938 297.59375 217.835938 300.1875 C 232.566406 303.125 248.976562 301.160156 263.832031 298.292969 C 278.589844 295.445312 293.144531 290.785156 307.167969 285.046875 C 320.824219 279.464844 334.3125 272.082031 348.425781 269.464844 C 356.648438 267.941406 364.652344 268.324219 372.160156 271.792969 C 379.847656 275.347656 387.242188 281.285156 395.261719 285.046875 C 409.925781 291.925781 427.230469 295.289062 443.304688 296.917969 C 468.898438 299.511719 490.847656 293.4375 515.183594 285.371094 C 532.183594 279.738281 549.183594 273.265625 566.457031 268.90625 C 583.089844 264.703125 603.058594 262.835938 616.957031 273.472656 C 622.75 277.90625 627.210938 282.972656 628.101562 290.855469 C 628.644531 295.65625 627.316406 301.019531 629.277344 305.34375 C 632.59375 312.65625 646.148438 310.785156 652.230469 309.90625 C 666.046875 307.914062 679.957031 303.121094 692.929688 297.449219 C 705.136719 292.109375 716.277344 285.394531 726.773438 276.898438 C 735.632812 269.730469 744.519531 262.640625 755.078125 258.089844 C 765.714844 253.503906 777.21875 251.929688 788.460938 249.957031 C 789.953125 249.695312 791.441406 249.414062 792.929688 249.117188 L 792.929688 248.117188 C 774.734375 252.3125 756.34375 253.933594 740.035156 264.839844 C 729.375 271.972656 720.234375 281.058594 709.230469 287.714844 Z M 740.242188 285.105469 C 714.542969 304.664062 683.1875 314.980469 652.492188 322.476562 C 642.027344 325.03125 627.953125 329.0625 617.28125 324.710938 C 608.589844 321.164062 620.730469 305.660156 619.960938 299.859375 C 618.476562 288.648438 598.902344 287.519531 589.894531 287.699219 C 573.308594 288.023438 556.597656 290.957031 540.480469 295.0625 C 520.996094 300.023438 500.027344 311.546875 479.640625 311.804688 C 465.042969 311.984375 450.242188 308.285156 436.128906 304.886719 C 415.65625 299.953125 395.21875 290.589844 374.75 287.839844 C 361.140625 286.011719 348.777344 288.589844 335.738281 293.421875 C 321.253906 298.789062 306.574219 303.941406 291.726562 307.910156 C 273.285156 312.84375 254.003906 316.625 235.109375 317.351562 C 219.636719 317.945312 202.042969 316.691406 189.03125 307.34375 C 179.167969 300.261719 169.890625 292.960938 158.382812 289.472656 C 145.582031 285.59375 131.367188 284.921875 117.660156 285.292969 C 102.710938 285.691406 87.542969 287.355469 72.511719 288.796875 C 55.882812 290.390625 39.238281 292.066406 22.625 293.832031 C 18.632812 294.253906 14.640625 294.6875 10.644531 295.117188 L 10.644531 297.484375 C 39.417969 294.328125 68.238281 291.1875 96.992188 288.761719 C 111.324219 287.550781 125.949219 286.664062 139.96875 288.195312 C 153.125 289.632812 166.769531 293.378906 177.683594 301.675781 C 188.46875 309.878906 198.261719 316.207031 211.46875 318.296875 C 228.75 321.03125 247.523438 318.886719 265.148438 315.800781 C 282.480469 312.769531 299.917969 308.316406 316.667969 302.636719 C 329.988281 298.117188 343.082031 292.28125 356.875 289.6875 C 365.9375 287.984375 375.34375 289.195312 384.207031 291.183594 C 395.683594 293.753906 407.164062 298 418.59375 301.265625 C 434.578125 305.828125 451.261719 310.453125 467.628906 312.527344 C 487.070312 314.988281 501.320312 309.464844 519.550781 303.257812 C 534.816406 298.058594 550.742188 294.375 566.671875 291.867188 C 580.082031 289.753906 604.402344 285.140625 614.886719 296.132812 C 622.601562 304.214844 608.761719 315.078125 611.097656 322.566406 C 613.339844 329.742188 628.53125 328.316406 634.839844 327.550781 C 649.808594 325.742188 665.039062 321.101562 679.65625 316.390625 C 694.394531 311.644531 709.085938 305.984375 722.523438 298.609375 C 745.390625 286.0625 763.285156 264.5625 788.847656 257.148438 C 790.191406 256.761719 791.554688 256.410156 792.929688 256.085938 L 792.929688 255.269531 C 785.492188 256.875 778.210938 258.988281 771.289062 262.425781 C 759.5625 268.246094 750.535156 277.269531 740.242188 285.105469 Z M 740.871094 274.128906 C 716.421875 293.769531 690.863281 305.941406 660.761719 313.753906 C 650.710938 316.367188 636.601562 320.550781 626.351562 316.261719 C 618.570312 313.003906 627.253906 296.710938 624.703125 290 C 620.082031 277.851562 600.703125 275.949219 590.007812 276.296875 C 573.523438 276.832031 557.121094 281.019531 541.15625 285.472656 C 518.179688 291.882812 493.546875 303.847656 469.257812 304.113281 C 453.589844 304.285156 437.585938 301.046875 422.527344 297.414062 C 404.023438 292.953125 386.273438 281.890625 368.097656 278.589844 C 354.886719 276.1875 342.539062 279.488281 329.886719 284.625 C 316.367188 290.113281 302.730469 295.570312 288.820312 299.59375 C 271.9375 304.476562 254.140625 307.953125 236.734375 308.585938 C 221.949219 309.121094 205.644531 307.597656 193.3125 298.367188 C 183.007812 290.652344 172.660156 283.023438 160.550781 279.246094 C 147.40625 275.152344 132.964844 274.226562 118.910156 274.574219 C 103.902344 274.945312 88.652344 276.597656 73.550781 277.96875 C 56.765625 279.492188 39.945312 281.050781 23.167969 282.734375 C 18.996094 283.152344 14.820312 283.582031 10.644531 284.011719 L 10.644531 286.140625 C 39.894531 283.097656 69.195312 280.226562 98.425781 277.875 C 112.925781 276.710938 127.6875 275.878906 141.863281 277.550781 C 155.722656 279.183594 170.308594 283.589844 181.894531 292.230469 C 192.554688 300.179688 201.695312 307.054688 214.65625 309.203125 C 230.65625 311.855469 248.191406 309.949219 264.539062 307.027344 C 280.3125 304.203125 296.195312 299.898438 311.296875 294.199219 C 324.214844 289.324219 336.929688 283 350.304688 280.375 C 358.875 278.691406 367.371094 279.785156 375.601562 282.28125 C 385.570312 285.308594 395.621094 290.230469 405.667969 293.515625 C 421.714844 298.765625 438.984375 302.765625 455.820312 304.601562 C 477.882812 307.011719 495.847656 301.542969 516.859375 294.832031 C 533.839844 289.40625 551.074219 284.585938 568.527344 281.125 C 583.875 278.078125 605.746094 274.421875 618.671875 285.621094 C 628.929688 294.511719 617.300781 305.277344 620.378906 314.03125 C 622.855469 321.066406 637.164062 319.441406 643.320312 318.664062 C 657.933594 316.8125 672.761719 312.191406 686.820312 307.085938 C 700.410156 302.152344 713.832031 296.054688 725.699219 288.070312 C 736.070312 281.097656 745.382812 271.746094 756.292969 265.09375 C 766.433594 258.910156 777.148438 255.648438 788.648438 253.515625 C 790.066406 253.253906 791.496094 253.003906 792.929688 252.757812 L 792.929688 251.921875 C 784.703125 253.304688 776.476562 254.761719 768.632812 257.578125 C 758.328125 261.28125 749.371094 267.304688 740.871094 274.128906 Z M 740.871094 274.128906 " fill-opacity="1" fill-rule="nonzero"/></g></svg>